<?xml version="1.0" encoding="UTF-8"?>
<svg xmlns="http://www.w3.org/2000/svg" xmlns:xlink="http://www.w3.org/1999/xlink" width="55px" height="55px" viewBox="0 0 55 55" version="1.1">
<g id="surface1">
<path style="fill-rule:evenodd;fill:rgb(100%,100%,100%);fill-opacity:1;stroke-width:0.008;stroke-linecap:butt;stroke-linejoin:round;stroke:rgb(89.411765%,90.196079%,100%);stroke-opacity:1;stroke-miterlimit:2;" d="M 51.5625 13.734375 C 51.5625 10.894531 49.261719 8.59375 46.421875 8.59375 L 8.578125 8.59375 C 5.738281 8.59375 3.4375 10.894531 3.4375 13.734375 C 3.4375 19.355469 3.4375 30.488281 3.4375 36.109375 C 3.4375 38.949219 5.738281 41.25 8.578125 41.25 L 20.050781 41.25 L 26.46875 46.0625 C 27.082031 46.519531 27.917969 46.519531 28.53125 46.0625 L 34.949219 41.25 L 46.421875 41.25 C 49.261719 41.25 51.5625 38.949219 51.5625 36.109375 Z M 18.21875 29.21875 L 36.78125 29.21875 C 37.730469 29.21875 38.5 28.449219 38.5 27.5 C 38.5 26.550781 37.730469 25.78125 36.78125 25.78125 L 18.21875 25.78125 C 17.269531 25.78125 16.5 26.550781 16.5 27.5 C 16.5 28.449219 17.269531 29.21875 18.21875 29.21875 Z M 12.03125 22.34375 L 42.96875 22.34375 C 43.917969 22.34375 44.6875 21.574219 44.6875 20.625 C 44.6875 19.675781 43.917969 18.90625 42.96875 18.90625 L 12.03125 18.90625 C 11.082031 18.90625 10.3125 19.675781 10.3125 20.625 C 10.3125 21.574219 11.082031 22.34375 12.03125 22.34375 Z M 12.03125 22.34375 " transform="matrix(1,0,0,1,0,0)"/>
</g>
</svg>
