<?xml version="1.0" encoding="UTF-8"?>
<svg xmlns="http://www.w3.org/2000/svg" xmlns:xlink="http://www.w3.org/1999/xlink" width="55px" height="55px" viewBox="0 0 55 55" version="1.1">
<g id="surface1">
<path style=" stroke:none;fill-rule:nonzero;fill:rgb(100%,100%,100%);fill-opacity:1;" d="M 29.109375 40.675781 C 27.746094 39.699219 25.953125 41.117188 25.320312 42.644531 C 24.769531 43.976562 25.449219 45.203125 26.8125 45.59375 C 27.570312 45.8125 28.386719 45.757812 29.113281 45.441406 C 30.785156 44.652344 30.617188 42.710938 29.734375 41.351562 C 29.570312 41.089844 29.359375 40.859375 29.109375 40.675781 Z M 40.765625 27.496094 C 40.363281 27.496094 39.964844 27.53125 39.566406 27.59375 C 38.136719 27.785156 36.746094 28.195312 35.441406 28.8125 C 34.785156 29.144531 34.175781 29.5625 33.507812 29.875 C 32.835938 30.191406 32 30.183594 31.382812 30.582031 C 30.984375 30.828125 30.695312 31.214844 30.578125 31.667969 C 30.378906 32.515625 30.9375 33.191406 31.640625 33.582031 C 32.660156 34.148438 33.695312 34.695312 34.699219 35.289062 C 35.550781 35.789062 36.5 36.539062 37.550781 36.378906 C 38.292969 36.261719 38.933594 35.597656 39.484375 35.128906 C 40.195312 34.511719 40.867188 33.855469 41.503906 33.164062 C 42.277344 32.347656 43.441406 31.488281 43.835938 30.40625 C 43.941406 30.050781 43.945312 29.675781 43.84375 29.316406 C 43.742188 28.960938 43.542969 28.640625 43.265625 28.394531 C 42.929688 28.085938 42.535156 27.84375 42.105469 27.691406 C 41.675781 27.535156 41.222656 27.46875 40.765625 27.496094 Z M 40.765625 27.496094 "/>
<path style=" stroke:none;fill-rule:nonzero;fill:rgb(100%,100%,100%);fill-opacity:1;" d="M 51.398438 26.984375 C 51.398438 26.921875 51.394531 26.859375 51.394531 26.792969 C 51.390625 26.6875 51.386719 26.582031 51.382812 26.476562 C 51.375 26.300781 51.367188 26.125 51.351562 25.949219 C 51.351562 25.914062 51.347656 25.875 51.347656 25.839844 C 51.339844 25.714844 51.328125 25.589844 51.320312 25.46875 L 51.3125 25.394531 C 50.820312 19.828125 48.390625 14.609375 44.453125 10.644531 C 40.511719 6.683594 35.308594 4.226562 29.742188 3.699219 C 29.722656 3.699219 29.699219 3.695312 29.675781 3.695312 C 29.476562 3.675781 29.273438 3.660156 29.066406 3.648438 C 29.011719 3.644531 28.953125 3.640625 28.898438 3.636719 C 28.722656 3.628906 28.546875 3.617188 28.371094 3.613281 C 28.308594 3.609375 28.246094 3.609375 28.1875 3.605469 C 27.957031 3.601562 27.730469 3.59375 27.5 3.59375 C 27.320312 3.59375 27.140625 3.597656 26.960938 3.601562 C 26.871094 3.605469 26.777344 3.609375 26.6875 3.609375 C 26.609375 3.613281 26.53125 3.613281 26.457031 3.617188 C 26.320312 3.625 26.183594 3.632812 26.046875 3.640625 C 26.03125 3.640625 26.019531 3.640625 26.003906 3.640625 C 20.300781 4 14.914062 6.390625 10.820312 10.378906 C 6.726562 14.367188 4.195312 19.6875 3.6875 25.382812 C 3.625 26.074219 3.59375 26.738281 3.59375 27.5 C 3.59375 27.6875 3.597656 27.871094 3.601562 28.058594 L 3.609375 28.257812 C 3.613281 28.375 3.617188 28.492188 3.621094 28.609375 C 3.625 28.691406 3.628906 28.777344 3.632812 28.859375 C 3.640625 28.957031 3.648438 29.054688 3.652344 29.152344 C 3.660156 29.246094 3.664062 29.339844 3.671875 29.433594 C 3.679688 29.519531 3.6875 29.601562 3.695312 29.683594 C 3.703125 29.789062 3.714844 29.894531 3.726562 30 C 3.730469 30.074219 3.742188 30.148438 3.75 30.222656 C 3.753906 30.300781 3.761719 30.375 3.773438 30.453125 L 3.792969 30.578125 C 4 32.21875 4.378906 33.832031 4.925781 35.394531 C 4.925781 35.398438 4.929688 35.40625 4.929688 35.410156 C 4.976562 35.539062 5.023438 35.671875 5.070312 35.800781 C 5.085938 35.84375 5.105469 35.886719 5.121094 35.933594 C 5.160156 36.039062 5.199219 36.148438 5.242188 36.253906 C 5.273438 36.332031 5.304688 36.40625 5.335938 36.484375 C 5.367188 36.5625 5.398438 36.640625 5.429688 36.714844 C 7.625 41.988281 11.640625 46.300781 16.746094 48.859375 C 16.757812 48.871094 16.773438 48.878906 16.789062 48.882812 C 16.910156 48.945312 17.035156 49.003906 17.15625 49.0625 C 17.238281 49.101562 17.316406 49.140625 17.398438 49.179688 C 17.4375 49.195312 17.476562 49.214844 17.515625 49.234375 C 20.648438 50.671875 24.054688 51.410156 27.5 51.40625 L 27.515625 51.40625 C 27.710938 51.40625 27.914062 51.402344 28.109375 51.398438 C 28.140625 51.394531 28.171875 51.394531 28.203125 51.394531 C 28.378906 51.390625 28.550781 51.382812 28.726562 51.375 C 28.734375 51.375 28.742188 51.371094 28.75 51.371094 C 34.648438 51.0625 40.226562 48.582031 44.402344 44.402344 C 48.582031 40.222656 51.0625 34.648438 51.371094 28.746094 C 51.375 28.742188 51.375 28.734375 51.375 28.726562 C 51.382812 28.550781 51.390625 28.375 51.394531 28.199219 L 51.398438 28.109375 C 51.402344 27.910156 51.40625 27.703125 51.40625 27.5 C 51.40625 27.328125 51.402344 27.15625 51.398438 26.984375 Z M 27.5 48.25 C 27.414062 48.25 27.328125 48.246094 27.238281 48.246094 C 27.136719 48.246094 26.90625 48.023438 26.816406 47.960938 C 26.652344 47.847656 26.488281 47.734375 26.328125 47.617188 C 26.019531 47.398438 25.71875 47.167969 25.429688 46.929688 C 24.707031 46.371094 24.074219 45.707031 23.550781 44.957031 C 22.445312 43.28125 22.648438 41.339844 23.660156 39.667969 C 24.382812 38.476562 25.507812 37.535156 26.363281 36.433594 C 27.335938 35.234375 28.074219 33.863281 28.535156 32.394531 C 28.742188 31.738281 28.789062 31.042969 28.675781 30.363281 C 28.558594 29.6875 28.285156 29.046875 27.875 28.496094 C 26.878906 27.269531 25.050781 26.613281 23.574219 26.226562 C 23.390625 26.179688 23.203125 26.140625 23.011719 26.109375 C 22.59375 26.042969 22.171875 26 21.75 25.980469 C 20.21875 25.894531 18.6875 25.925781 17.164062 26.078125 C 15.828125 26.207031 14.425781 26.621094 13.160156 25.976562 C 12.070312 25.417969 11.085938 24.671875 9.882812 24.355469 C 8.949219 24.144531 7.996094 24.042969 7.039062 24.050781 C 7.503906 21.28125 8.53125 18.636719 10.050781 16.273438 C 11.570312 13.910156 13.554688 11.882812 15.878906 10.3125 C 18.207031 8.738281 20.828125 7.652344 23.585938 7.125 C 26.34375 6.59375 29.183594 6.628906 31.925781 7.226562 C 32.019531 8.808594 33.457031 9.773438 32.714844 11.453125 C 31.71875 13.722656 28.90625 14.394531 27.753906 16.542969 C 27.488281 17 27.359375 17.527344 27.378906 18.058594 C 27.402344 18.589844 27.574219 19.101562 27.875 19.539062 C 28.292969 20.191406 28.671875 20.867188 29.015625 21.5625 C 29.519531 22.53125 30.058594 23.800781 31.050781 24.371094 C 33.953125 26.046875 34.1875 20.832031 36.183594 20.503906 C 37.261719 20.328125 37.871094 20.9375 38.378906 21.796875 C 38.980469 22.816406 39.46875 23.714844 40.746094 23.964844 C 41.550781 24.078125 42.371094 24.078125 43.175781 23.964844 C 43.574219 23.925781 47.8125 23.253906 47.761719 23.027344 C 48.429688 26.058594 48.410156 29.203125 47.703125 32.226562 C 46.996094 35.25 45.621094 38.074219 43.675781 40.496094 C 41.730469 42.914062 39.269531 44.867188 36.46875 46.210938 C 33.671875 47.554688 30.605469 48.25 27.5 48.25 Z M 27.5 48.25 "/>
</g>
</svg>
