<?xml version="1.0" encoding="UTF-8"?>
<svg xmlns="http://www.w3.org/2000/svg" xmlns:xlink="http://www.w3.org/1999/xlink" width="55px" height="55px" viewBox="0 0 55 55" version="1.1">
<g id="surface1">
<path style=" stroke:none;fill-rule:nonzero;fill:rgb(88.627452%,88.627452%,88.627452%);fill-opacity:0.74902;" d="M 53.058594 44.6875 L 35.871094 14.917969 C 35.757812 14.722656 35.605469 14.546875 35.425781 14.410156 C 35.246094 14.269531 35.042969 14.167969 34.820312 14.109375 C 34.605469 14.050781 34.375 14.039062 34.152344 14.066406 C 33.925781 14.097656 33.710938 14.167969 33.515625 14.28125 L 23.101562 20.296875 C 22.902344 20.410156 22.730469 20.5625 22.589844 20.738281 C 22.453125 20.917969 22.351562 21.125 22.292969 21.34375 C 22.234375 21.5625 22.21875 21.789062 22.246094 22.015625 C 22.277344 22.238281 22.351562 22.457031 22.464844 22.652344 L 39.652344 52.421875 C 39.804688 52.683594 40.019531 52.902344 40.285156 53.050781 C 40.546875 53.203125 40.84375 53.28125 41.148438 53.28125 C 41.445312 53.28125 41.742188 53.199219 42 53.046875 C 42.257812 52.898438 42.476562 52.679688 42.625 52.421875 L 45.617188 47.265625 L 51.5625 47.265625 C 51.867188 47.265625 52.164062 47.1875 52.425781 47.035156 C 52.6875 46.886719 52.90625 46.667969 53.058594 46.40625 C 53.207031 46.144531 53.289062 45.847656 53.289062 45.546875 C 53.289062 45.246094 53.207031 44.949219 53.058594 44.6875 Z M 53.058594 44.6875 "/>
<path style=" stroke:none;fill-rule:nonzero;fill:rgb(88.627452%,88.627452%,88.627452%);fill-opacity:0.74902;" d="M 31.898438 20.296875 L 21.484375 14.28125 C 21.085938 14.0625 20.621094 14 20.179688 14.109375 C 19.957031 14.167969 19.753906 14.269531 19.574219 14.410156 C 19.394531 14.546875 19.242188 14.722656 19.128906 14.917969 L 1.941406 44.6875 C 1.792969 44.949219 1.710938 45.246094 1.710938 45.546875 C 1.710938 45.847656 1.792969 46.144531 1.941406 46.40625 C 2.09375 46.667969 2.3125 46.886719 2.574219 47.035156 C 2.835938 47.1875 3.132812 47.265625 3.4375 47.265625 L 9.382812 47.265625 L 12.375 52.421875 C 12.523438 52.679688 12.742188 52.898438 13 53.046875 C 13.257812 53.199219 13.554688 53.28125 13.851562 53.28125 C 14.15625 53.28125 14.453125 53.203125 14.714844 53.050781 C 14.980469 52.902344 15.195312 52.683594 15.347656 52.421875 L 32.535156 22.652344 C 32.648438 22.457031 32.722656 22.238281 32.753906 22.015625 C 32.78125 21.789062 32.765625 21.5625 32.707031 21.34375 C 32.648438 21.125 32.546875 20.917969 32.410156 20.738281 C 32.269531 20.5625 32.097656 20.410156 31.898438 20.296875 Z M 31.898438 20.296875 "/>
<path style=" stroke:none;fill-rule:nonzero;fill:rgb(100%,100%,100%);fill-opacity:1;" d="M 27.5 42.96875 C 38.890625 42.96875 48.125 33.734375 48.125 22.34375 C 48.125 10.953125 38.890625 1.71875 27.5 1.71875 C 16.109375 1.71875 6.875 10.953125 6.875 22.34375 C 6.875 33.734375 16.109375 42.96875 27.5 42.96875 Z M 27.5 42.96875 "/>
<path style=" stroke:none;fill-rule:nonzero;fill:rgb(88.627452%,88.627452%,88.627452%);fill-opacity:0.74902;" d="M 39.53125 17.753906 C 39.433594 17.453125 39.253906 17.183594 39.007812 16.976562 C 38.765625 16.769531 38.472656 16.632812 38.15625 16.585938 L 31.917969 15.675781 L 29.046875 9.984375 C 28.90625 9.695312 28.6875 9.449219 28.414062 9.277344 C 28.140625 9.105469 27.824219 9.015625 27.5 9.015625 C 27.175781 9.015625 26.859375 9.105469 26.585938 9.277344 C 26.3125 9.449219 26.09375 9.695312 25.953125 9.984375 L 23.167969 15.675781 L 16.929688 16.585938 C 16.613281 16.632812 16.3125 16.765625 16.066406 16.972656 C 15.820312 17.183594 15.640625 17.453125 15.539062 17.761719 C 15.441406 18.066406 15.429688 18.394531 15.507812 18.707031 C 15.589844 19.019531 15.753906 19.300781 15.984375 19.523438 L 20.503906 23.960938 L 19.4375 30.214844 C 19.378906 30.539062 19.410156 30.871094 19.53125 31.175781 C 19.652344 31.480469 19.859375 31.742188 20.125 31.933594 C 20.378906 32.105469 20.667969 32.203125 20.96875 32.226562 C 21.273438 32.246094 21.574219 32.1875 21.84375 32.054688 L 27.5 29.082031 L 33.070312 32.019531 C 33.316406 32.15625 33.59375 32.226562 33.875 32.226562 C 34.234375 32.222656 34.582031 32.109375 34.875 31.898438 C 35.140625 31.710938 35.347656 31.445312 35.46875 31.140625 C 35.589844 30.835938 35.621094 30.503906 35.5625 30.179688 L 34.496094 23.925781 L 39.015625 19.492188 C 39.253906 19.277344 39.429688 19.003906 39.519531 18.695312 C 39.613281 18.390625 39.617188 18.0625 39.53125 17.753906 Z M 39.53125 17.753906 "/>
</g>
</svg>
