<?xml version="1.0" encoding="UTF-8"?>
<svg xmlns="http://www.w3.org/2000/svg" xmlns:xlink="http://www.w3.org/1999/xlink" width="55px" height="55px" viewBox="0 0 55 55" version="1.1">
<g id="surface1">
<path style=" stroke:none;fill-rule:nonzero;fill:rgb(100%,100%,100%);fill-opacity:1;" d="M 49.703125 27.417969 C 49.613281 26.769531 49.234375 26.21875 48.683594 25.867188 C 48.320312 25.632812 47.867188 25.632812 47.488281 25.796875 C 47.480469 24.390625 47.488281 22.988281 47.453125 21.589844 C 47.414062 20.015625 47.5 18.445312 47.558594 16.875 C 47.582031 16.359375 47.25 15.914062 46.804688 15.691406 C 46.765625 15.101562 46.722656 14.507812 46.671875 13.921875 C 46.636719 13.566406 46.609375 13.214844 46.558594 12.867188 C 46.550781 12.796875 46.539062 12.730469 46.53125 12.660156 C 46.503906 12.476562 46.421875 12.164062 46.320312 12.023438 C 46.167969 11.828125 46.042969 11.609375 45.808594 11.5 C 45.640625 11.417969 45.476562 11.339844 45.289062 11.3125 C 45.109375 11.285156 44.925781 11.285156 44.742188 11.265625 C 44.703125 10.683594 44.671875 10.105469 44.644531 9.527344 C 44.710938 9.378906 44.746094 9.214844 44.746094 9.046875 C 44.746094 8.367188 44.183594 7.8125 43.511719 7.804688 C 42.125 7.796875 40.742188 7.816406 39.359375 7.757812 C 38.113281 7.707031 36.871094 7.632812 35.621094 7.609375 C 33 7.5625 30.367188 7.578125 27.742188 7.5625 C 25.164062 7.542969 22.585938 7.492188 20.003906 7.484375 C 18.746094 7.484375 17.484375 7.460938 16.226562 7.460938 C 15.011719 7.460938 13.796875 7.480469 12.585938 7.566406 C 11.25 7.660156 9.894531 7.964844 8.664062 8.503906 C 7.460938 9.023438 6.382812 10.054688 6.011719 11.332031 C 5.910156 11.679688 5.859375 12.035156 5.8125 12.398438 C 5.773438 12.691406 5.738281 12.992188 5.773438 13.289062 C 5.816406 13.660156 5.875 14.015625 5.972656 14.371094 C 5.570312 14.574219 5.285156 14.988281 5.28125 15.464844 C 5.261719 16.835938 5.269531 18.203125 5.242188 19.574219 C 5.222656 20.816406 5.191406 22.058594 5.179688 23.300781 C 5.15625 25.8125 5.140625 28.324219 5.179688 30.835938 C 5.203125 32.585938 5.242188 34.332031 5.25 36.078125 C 5.261719 37.828125 5.285156 39.585938 5.242188 41.339844 C 5.238281 41.558594 5.316406 41.753906 5.421875 41.933594 C 5.683594 42.605469 5.953125 43.277344 6.304688 43.902344 C 6.449219 44.15625 6.632812 44.394531 6.808594 44.628906 C 6.972656 44.84375 7.136719 45.058594 7.304688 45.269531 C 7.558594 45.589844 7.941406 45.847656 8.28125 46.0625 C 9.039062 46.5625 9.925781 46.878906 10.816406 47.035156 C 11.589844 47.167969 12.371094 47.296875 13.15625 47.347656 C 14.578125 47.429688 16.007812 47.441406 17.4375 47.464844 C 18.792969 47.488281 20.152344 47.515625 21.507812 47.511719 C 22.890625 47.511719 24.269531 47.496094 25.652344 47.507812 C 27.039062 47.519531 28.421875 47.5625 29.808594 47.53125 C 31.238281 47.507812 32.667969 47.449219 34.09375 47.425781 C 35.46875 47.40625 36.851562 47.410156 38.222656 47.410156 C 39.535156 47.410156 40.847656 47.410156 42.15625 47.394531 C 42.769531 47.386719 43.382812 47.394531 44 47.402344 C 44.644531 47.410156 45.292969 47.414062 45.941406 47.40625 C 46.382812 47.398438 46.769531 47.179688 47.03125 46.855469 C 47.363281 46.621094 47.597656 46.253906 47.589844 45.824219 C 47.558594 44.347656 47.574219 42.867188 47.558594 41.390625 C 47.539062 39.691406 47.5625 37.996094 47.59375 36.300781 C 48 36.238281 48.363281 36.121094 48.703125 35.835938 C 49.457031 35.203125 49.636719 34.117188 49.714844 33.191406 C 49.765625 32.617188 49.765625 32.039062 49.785156 31.464844 C 49.824219 30.582031 49.867188 29.691406 49.835938 28.804688 C 49.816406 28.34375 49.765625 27.878906 49.703125 27.417969 Z M 13.238281 15.183594 C 13.246094 15.058594 13.25 14.933594 13.222656 14.804688 C 13.21875 14.769531 13.210938 14.738281 13.207031 14.703125 C 13.171875 14.179688 13.1875 13.648438 13.191406 13.121094 C 15.707031 13.191406 18.222656 13.191406 20.742188 13.207031 C 22.039062 13.210938 23.332031 13.246094 24.628906 13.277344 C 25.832031 13.308594 27.027344 13.398438 28.230469 13.4375 C 29.480469 13.480469 30.734375 13.5 31.988281 13.523438 C 33.242188 13.550781 34.496094 13.578125 35.75 13.585938 C 37.023438 13.597656 38.300781 13.609375 39.574219 13.613281 C 40.699219 13.617188 41.824219 13.664062 42.945312 13.671875 C 43.359375 13.671875 43.773438 13.6875 44.1875 13.71875 C 44.257812 14.324219 44.300781 14.933594 44.320312 15.546875 C 43.652344 15.558594 42.980469 15.554688 42.316406 15.546875 C 41.066406 15.527344 39.816406 15.492188 38.566406 15.484375 C 36.054688 15.46875 33.550781 15.386719 31.042969 15.367188 C 28.375 15.347656 25.707031 15.371094 23.035156 15.277344 C 21.320312 15.21875 19.597656 15.222656 17.882812 15.226562 C 16.964844 15.226562 16.050781 15.226562 15.136719 15.21875 C 14.503906 15.210938 13.871094 15.199219 13.238281 15.183594 Z M 47.125 33.644531 C 47.125 33.640625 47.128906 33.636719 47.132812 33.632812 C 47.132812 33.636719 47.128906 33.640625 47.125 33.644531 Z M 46.792969 28.230469 C 46.878906 28.238281 46.96875 28.230469 47.050781 28.21875 C 47.105469 28.972656 47.09375 29.730469 47.082031 30.488281 C 47.074219 30.964844 47.066406 31.445312 47.054688 31.929688 C 47.050781 32.398438 47.058594 32.867188 47.015625 33.332031 C 46.992188 33.441406 46.96875 33.546875 46.941406 33.65625 C 46.464844 33.679688 45.984375 33.664062 45.507812 33.652344 C 44.929688 33.636719 44.355469 33.632812 43.777344 33.632812 C 42.496094 33.632812 41.210938 33.636719 39.941406 33.492188 C 39.554688 33.421875 39.179688 33.324219 38.8125 33.1875 C 38.441406 33.015625 38.101562 32.8125 37.773438 32.574219 C 37.652344 32.464844 37.53125 32.355469 37.417969 32.234375 C 37.351562 32.128906 37.289062 32.019531 37.230469 31.910156 C 37.171875 31.746094 37.117188 31.582031 37.070312 31.414062 C 37.042969 31.03125 37.054688 30.65625 37.097656 30.273438 C 37.167969 29.863281 37.25 29.460938 37.390625 29.066406 C 37.4375 28.976562 37.488281 28.890625 37.539062 28.804688 C 37.605469 28.742188 37.671875 28.675781 37.742188 28.617188 C 37.871094 28.539062 38.003906 28.464844 38.144531 28.394531 C 38.484375 28.273438 38.828125 28.179688 39.183594 28.117188 C 39.742188 28.058594 40.300781 28.046875 40.863281 28.035156 C 41.460938 28.015625 42.0625 27.996094 42.664062 27.996094 C 44.042969 27.988281 45.421875 28.125 46.792969 28.230469 Z M 8.414062 12.546875 C 8.453125 12.332031 8.5 12.125 8.570312 11.921875 C 8.617188 11.824219 8.671875 11.734375 8.726562 11.644531 C 8.878906 11.476562 9.039062 11.316406 9.207031 11.171875 C 9.425781 11.019531 9.652344 10.898438 9.894531 10.78125 C 10.710938 10.46875 11.566406 10.277344 12.425781 10.144531 C 13.601562 10.019531 14.769531 9.964844 15.949219 9.953125 C 17.195312 9.949219 18.441406 9.9375 19.6875 9.933594 C 20.851562 9.933594 22.011719 9.941406 23.175781 9.945312 C 24.570312 9.953125 25.96875 9.960938 27.363281 9.953125 C 29.980469 9.9375 32.597656 9.929688 35.21875 9.984375 C 36.46875 10.007812 37.71875 10.035156 38.972656 10.117188 C 40.007812 10.1875 41.042969 10.210938 42.078125 10.242188 C 42.101562 10.542969 42.121094 10.851562 42.15625 11.15625 C 42.039062 11.15625 41.925781 11.152344 41.808594 11.15625 C 39.363281 11.171875 36.914062 11.207031 34.464844 11.171875 C 33.171875 11.15625 31.875 11.128906 30.582031 11.085938 C 29.359375 11.050781 28.136719 11.039062 26.914062 10.992188 C 25.667969 10.941406 24.417969 10.890625 23.167969 10.875 C 21.917969 10.855469 20.667969 10.855469 19.417969 10.84375 C 17.085938 10.804688 14.757812 10.722656 12.429688 10.625 C 12.414062 10.625 12.398438 10.621094 12.382812 10.621094 C 11.78125 10.621094 11.300781 11.128906 11.21875 11.707031 C 10.855469 11.9375 10.597656 12.324219 10.597656 12.777344 C 10.601562 13.535156 10.617188 14.292969 10.714844 15.046875 C 10.660156 15.039062 10.605469 15.039062 10.550781 15.03125 C 10.152344 14.96875 9.757812 14.902344 9.375 14.777344 C 9.25 14.710938 9.132812 14.640625 9.015625 14.5625 C 8.953125 14.507812 8.898438 14.453125 8.84375 14.390625 C 8.75 14.238281 8.671875 14.085938 8.601562 13.929688 C 8.515625 13.703125 8.449219 13.476562 8.398438 13.238281 C 8.382812 13.003906 8.390625 12.777344 8.414062 12.546875 Z M 42.039062 44.636719 C 40.707031 44.667969 39.367188 44.664062 38.03125 44.695312 C 35.175781 44.75 32.320312 44.847656 29.460938 44.867188 C 28.136719 44.875 26.808594 44.902344 25.480469 44.894531 C 24.074219 44.886719 22.664062 44.867188 21.257812 44.863281 C 19.929688 44.859375 18.601562 44.878906 17.273438 44.882812 C 15.84375 44.886719 14.40625 44.894531 12.980469 44.753906 C 12.867188 44.742188 12.753906 44.730469 12.640625 44.71875 C 11.867188 44.609375 11.085938 44.472656 10.355469 44.199219 C 10.0625 44.054688 9.78125 43.894531 9.511719 43.710938 C 9.324219 43.546875 9.164062 43.371094 9.007812 43.183594 C 8.867188 43 8.734375 42.8125 8.609375 42.617188 C 8.472656 42.402344 8.367188 42.164062 8.265625 41.925781 C 8.144531 41.636719 8.03125 41.339844 7.921875 41.042969 C 7.851562 40.863281 7.769531 40.707031 7.664062 40.570312 C 7.648438 38.355469 7.648438 36.144531 7.621094 33.933594 C 7.601562 32.707031 7.578125 31.476562 7.5625 30.25 C 7.542969 28.988281 7.558594 27.726562 7.554688 26.464844 C 7.554688 24.664062 7.550781 22.859375 7.597656 21.054688 C 7.632812 19.652344 7.675781 18.25 7.710938 16.847656 C 7.792969 16.902344 7.875 16.957031 7.957031 17.003906 C 8.644531 17.382812 9.410156 17.476562 10.171875 17.570312 C 10.8125 17.648438 11.457031 17.683594 12.101562 17.707031 C 13.382812 17.753906 14.671875 17.734375 15.957031 17.734375 C 17.3125 17.734375 18.664062 17.71875 20.015625 17.714844 C 21.347656 17.703125 22.671875 17.765625 24.003906 17.808594 C 25.285156 17.847656 26.570312 17.847656 27.855469 17.847656 C 29.1875 17.84375 30.523438 17.832031 31.855469 17.835938 C 33.160156 17.839844 34.464844 17.917969 35.765625 17.996094 C 38.214844 18.140625 40.671875 18.148438 43.125 18.179688 C 43.703125 18.1875 44.289062 18.179688 44.875 18.15625 C 44.839844 20.609375 44.875 23.0625 44.882812 25.515625 C 44.082031 25.476562 43.277344 25.421875 42.472656 25.410156 C 41.855469 25.40625 41.238281 25.386719 40.625 25.375 C 40.5625 25.375 40.503906 25.375 40.441406 25.375 C 39.757812 25.375 39.082031 25.4375 38.402344 25.527344 C 37.667969 25.628906 36.914062 25.929688 36.28125 26.320312 C 35.808594 26.609375 35.476562 27 35.144531 27.433594 C 34.933594 27.707031 34.808594 28.09375 34.691406 28.40625 C 34.566406 28.742188 34.496094 29.105469 34.429688 29.457031 C 34.25 30.363281 34.167969 31.285156 34.355469 32.199219 C 34.402344 32.425781 34.492188 32.648438 34.578125 32.867188 C 34.789062 33.414062 35.070312 33.863281 35.464844 34.296875 C 35.773438 34.644531 36.1875 34.910156 36.566406 35.175781 C 36.808594 35.347656 37.078125 35.484375 37.351562 35.609375 C 37.734375 35.785156 38.132812 35.964844 38.546875 36.066406 C 39.28125 36.25 40.046875 36.308594 40.804688 36.351562 C 41.648438 36.398438 42.5 36.390625 43.351562 36.382812 C 43.710938 36.378906 44.074219 36.378906 44.433594 36.378906 C 44.585938 36.378906 44.734375 36.378906 44.886719 36.378906 C 44.867188 39.117188 44.957031 41.851562 44.976562 44.585938 C 44 44.597656 43.019531 44.613281 42.039062 44.636719 Z M 41.476562 30.707031 C 41.476562 31.445312 40.859375 32.066406 40.117188 32.066406 C 39.375 32.066406 38.757812 31.449219 38.757812 30.707031 C 38.757812 29.964844 39.375 29.347656 40.117188 29.347656 C 40.859375 29.347656 41.476562 29.964844 41.476562 30.707031 Z M 41.476562 30.707031 "/>
</g>
</svg>
