<?xml version="1.0" encoding="UTF-8"?>
<svg xmlns="http://www.w3.org/2000/svg" xmlns:xlink="http://www.w3.org/1999/xlink" width="55px" height="55px" viewBox="0 0 55 55" version="1.1">
<g id="surface1">
<path style=" stroke:none;fill-rule:nonzero;fill:rgb(100%,100%,100%);fill-opacity:1;" d="M 41.25 18.332031 C 41.25 20.863281 39.199219 22.917969 36.667969 22.917969 C 34.136719 22.917969 32.082031 20.863281 32.082031 18.332031 C 32.082031 15.800781 34.136719 13.75 36.667969 13.75 C 39.199219 13.75 41.25 15.800781 41.25 18.332031 Z M 41.25 18.332031 "/>
<path style=" stroke:none;fill-rule:evenodd;fill:rgb(100%,100%,100%);fill-opacity:1;" d="M 27.367188 2.863281 L 27.632812 2.863281 C 32.921875 2.863281 37.066406 2.863281 40.300781 3.300781 C 43.613281 3.746094 46.226562 4.671875 48.277344 6.722656 C 50.328125 8.773438 51.253906 11.386719 51.699219 14.699219 C 52.136719 17.933594 52.136719 22.078125 52.136719 27.367188 L 52.136719 27.570312 C 52.136719 31.945312 52.136719 35.527344 51.898438 38.441406 C 51.660156 41.371094 51.171875 43.820312 50.074219 45.851562 C 49.59375 46.75 49 47.554688 48.277344 48.277344 C 46.226562 50.328125 43.613281 51.253906 40.300781 51.699219 C 37.066406 52.136719 32.921875 52.136719 27.632812 52.136719 L 27.367188 52.136719 C 22.078125 52.136719 17.933594 52.136719 14.699219 51.699219 C 11.386719 51.253906 8.773438 50.328125 6.722656 48.277344 C 4.90625 46.457031 3.96875 44.195312 3.46875 41.386719 C 2.976562 38.632812 2.886719 35.199219 2.871094 30.941406 C 2.863281 29.859375 2.863281 28.710938 2.863281 27.503906 L 2.863281 27.367188 C 2.863281 22.078125 2.863281 17.933594 3.300781 14.699219 C 3.746094 11.386719 4.671875 8.773438 6.722656 6.722656 C 8.773438 4.671875 11.386719 3.746094 14.699219 3.300781 C 17.933594 2.863281 22.078125 2.863281 27.367188 2.863281 Z M 15.15625 6.707031 C 12.226562 7.101562 10.460938 7.847656 9.15625 9.15625 C 7.847656 10.460938 7.101562 12.226562 6.707031 15.15625 C 6.304688 18.136719 6.300781 22.050781 6.300781 27.5 C 6.300781 28.164062 6.300781 28.808594 6.304688 29.433594 L 8.597656 27.425781 C 10.683594 25.597656 13.832031 25.703125 15.796875 27.664062 L 25.625 37.496094 C 27.199219 39.070312 29.679688 39.285156 31.5 38.003906 L 32.183594 37.523438 C 34.808594 35.683594 38.355469 35.894531 40.738281 38.039062 L 47.222656 43.875 C 47.875 42.503906 48.265625 40.703125 48.472656 38.164062 C 48.695312 35.402344 48.699219 31.960938 48.699219 27.5 C 48.699219 22.050781 48.695312 18.136719 48.292969 15.15625 C 47.898438 12.226562 47.152344 10.460938 45.84375 9.15625 C 44.539062 7.847656 42.773438 7.101562 39.84375 6.707031 C 36.863281 6.304688 32.949219 6.300781 27.5 6.300781 C 22.050781 6.300781 18.136719 6.304688 15.15625 6.707031 Z M 15.15625 6.707031 "/>
</g>
</svg>
