<?xml version="1.0" encoding="UTF-8"?>
<svg xmlns="http://www.w3.org/2000/svg" xmlns:xlink="http://www.w3.org/1999/xlink" width="55px" height="55px" viewBox="0 0 55 55" version="1.1">
<g id="surface1">
<path style=" stroke:none;fill-rule:nonzero;fill:rgb(100%,100%,100%);fill-opacity:1;" d="M 12.605469 42.394531 L 12.605469 35.519531 C 12.601562 33.164062 13.15625 30.839844 14.230469 28.742188 C 15.300781 26.644531 16.855469 24.832031 18.769531 23.457031 C 17.480469 21.945312 16.605469 20.125 16.238281 18.171875 C 15.871094 16.222656 16.019531 14.207031 16.667969 12.332031 C 15 11.441406 13.058594 11.222656 11.230469 11.714844 C 9.40625 12.207031 7.835938 13.375 6.839844 14.984375 C 5.847656 16.589844 5.5 18.515625 5.875 20.371094 C 6.25 22.222656 7.316406 23.867188 8.855469 24.960938 C 6.910156 25.804688 5.25 27.199219 4.082031 28.972656 C 2.917969 30.75 2.292969 32.824219 2.292969 34.949219 L 2.292969 40.105469 C 2.292969 41.625 2.898438 43.078125 3.972656 44.152344 C 5.046875 45.226562 6.5 45.832031 8.019531 45.832031 L 13.390625 45.832031 C 12.875 44.761719 12.605469 43.585938 12.605469 42.394531 Z M 46.144531 24.960938 C 47.683594 23.867188 48.75 22.222656 49.125 20.371094 C 49.5 18.515625 49.152344 16.589844 48.160156 14.984375 C 47.164062 13.375 45.59375 12.207031 43.769531 11.714844 C 41.945312 11.222656 40 11.441406 38.332031 12.332031 C 38.980469 14.207031 39.128906 16.222656 38.761719 18.171875 C 38.394531 20.125 37.519531 21.945312 36.230469 23.457031 C 38.144531 24.832031 39.699219 26.644531 40.773438 28.742188 C 41.84375 30.839844 42.398438 33.164062 42.394531 35.519531 L 42.394531 42.394531 C 42.394531 43.585938 42.125 44.761719 41.609375 45.832031 L 46.980469 45.832031 C 48.5 45.832031 49.953125 45.226562 51.027344 44.152344 C 52.101562 43.078125 52.707031 41.625 52.707031 40.105469 L 52.707031 34.949219 C 52.707031 32.824219 52.082031 30.75 50.917969 28.972656 C 49.75 27.199219 48.089844 25.804688 46.144531 24.960938 Z M 46.144531 24.960938 "/>
<path style=" stroke:none;fill-rule:nonzero;fill:rgb(100%,100%,100%);fill-opacity:1;" d="M 32.261719 23.859375 C 33.972656 22.820312 35.292969 21.25 36.027344 19.390625 C 36.761719 17.527344 36.867188 15.480469 36.328125 13.554688 C 35.785156 11.628906 34.632812 9.929688 33.039062 8.722656 C 31.445312 7.515625 29.5 6.859375 27.5 6.859375 C 25.5 6.859375 23.554688 7.515625 21.960938 8.722656 C 20.367188 9.929688 19.214844 11.628906 18.671875 13.554688 C 18.132812 15.480469 18.238281 17.527344 18.972656 19.390625 C 19.707031 21.25 21.027344 22.820312 22.738281 23.859375 C 20.421875 24.804688 18.4375 26.421875 17.042969 28.496094 C 15.644531 30.574219 14.898438 33.019531 14.894531 35.519531 L 14.894531 42.394531 C 14.898438 43.914062 15.5 45.371094 16.574219 46.445312 C 17.648438 47.519531 19.105469 48.125 20.625 48.125 L 34.375 48.125 C 35.894531 48.125 37.351562 47.519531 38.425781 46.445312 C 39.5 45.371094 40.101562 43.914062 40.105469 42.394531 L 40.105469 35.519531 C 40.101562 33.019531 39.355469 30.574219 37.957031 28.496094 C 36.5625 26.421875 34.578125 24.804688 32.261719 23.859375 Z M 32.261719 23.859375 "/>
</g>
</svg>
